/* XPM */
static char *_e9fa1d8ecac46eed94bdcf4342bfd14DyzaVfBWK2tiAFjg[] = {
/* columns rows colors chars-per-pixel */
"45 45 210 2 ",
"   c None",
".  c #000000",
"X  c #0B0002",
"o  c #000A03",
"O  c #060908",
"+  c #0B0C0B",
"@  c #050008",
"#  c #110302",
"$  c #1D0501",
"%  c #021308",
"&  c #050A15",
"*  c #001719",
"=  c #141414",
"-  c #1A1B1B",
";  c #1C1511",
":  c #240000",
">  c #2A0000",
",  c #390505",
"<  c #281719",
"1  c #3D1618",
"2  c #101E26",
"3  c #052C2A",
"4  c #393230",
"5  c #4C0309",
"6  c #550105",
"7  c #570605",
"8  c #541016",
"9  c #760101",
"0  c #7C0102",
"q  c #780A0C",
"w  c #760211",
"e  c #3B4448",
"r  c #464545",
"t  c #4E5F55",
"y  c #585F5F",
"u  c #6A6859",
"i  c #850504",
"p  c #8C0302",
"a  c #8E0308",
"s  c #8D0C0C",
"d  c #87090A",
"f  c #940304",
"g  c #9C0303",
"h  c #9D0905",
"j  c #94050C",
"k  c #950A0A",
"l  c #9A0A09",
"z  c #860A11",
"x  c #8B0C11",
"c  c #9F0511",
"v  c #9F0F10",
"b  c #871010",
"n  c #941110",
"m  c #A40303",
"M  c #AC0203",
"N  c #A4060A",
"B  c #AC0609",
"V  c #A40B0B",
"C  c #AC0A0A",
"Z  c #A80C07",
"A  c #B30403",
"S  c #BC0505",
"D  c #B60A06",
"F  c #BE0A04",
"G  c #B20708",
"H  c #BC070B",
"J  c #B40B0B",
"K  c #BC0A0A",
"L  c #AE100C",
"P  c #BE1008",
"I  c #A60F12",
"U  c #A80814",
"Y  c #AF1119",
"T  c #C30305",
"R  c #CB0202",
"E  c #CC0B06",
"W  c #C50609",
"Q  c #CB070A",
"!  c #C50B0B",
"~  c #CB0B0B",
"^  c #C70805",
"/  c #D40503",
"(  c #DA0102",
")  c #D40B05",
"_  c #DC0C05",
"`  c #D4040B",
"'  c #DC0609",
"]  c #D30C0D",
"[  c #DB0C0D",
"{  c #C5100B",
"}  c #C91109",
"|  c #D5110D",
" . c #DC110D",
".. c #D21200",
"X. c #CB0711",
"o. c #C20C12",
"O. c #CC0C13",
"+. c #D60B12",
"@. c #DB0C13",
"#. c #DF0C19",
"$. c #D50617",
"%. c #C81F1C",
"&. c #D51312",
"*. c #DD1212",
"=. c #DB1319",
"-. c #E60200",
";. c #E90404",
":. c #E30C05",
">. c #EA0C06",
",. c #E2050A",
"<. c #EB0309",
"1. c #E30C0C",
"2. c #EC0D0C",
"3. c #F30000",
"4. c #FA0102",
"5. c #F10C05",
"6. c #F4060B",
"7. c #F40C0C",
"8. c #FB0E0D",
"9. c #F90B09",
"0. c #E41305",
"q. c #E3130C",
"w. c #EC110D",
"e. c #E2180F",
"r. c #F2110D",
"t. c #F9120C",
"y. c #E30412",
"u. c #E40C12",
"i. c #EB0E11",
"p. c #E60D19",
"a. c #ED0E18",
"s. c #ED0716",
"d. c #FB0412",
"f. c #F40E11",
"g. c #FB0C12",
"h. c #F30915",
"j. c #E51213",
"k. c #ED1112",
"l. c #E8131A",
"z. c #F31011",
"x. c #FB1113",
"c. c #F51D1A",
"v. c #D6220B",
"b. c #E6231F",
"n. c #F12116",
"m. c #DD0E24",
"M. c #F31D25",
"N. c #FB1625",
"B. c #CD2D2C",
"V. c #DE2821",
"C. c #E82A25",
"Z. c #F62929",
"A. c #BF5B53",
"S. c #BC5A4B",
"D. c #BA795F",
"F. c #BA7D66",
"G. c #C4634A",
"H. c #D06D4D",
"J. c #C66857",
"K. c #D56D5D",
"L. c #C2715D",
"P. c #CB775F",
"I. c #DA7259",
"U. c #E46450",
"Y. c #F36254",
"T. c #EC745C",
"R. c #E67A5E",
"E. c #EB7A5D",
"W. c #F3755E",
"Q. c #CB6F60",
"!. c #CC7363",
"~. c #DD7562",
"^. c #DA7A66",
"/. c #DE7C71",
"(. c #E97964",
"). c #F87B65",
"_. c #BA8865",
"`. c #AC986E",
"'. c #B6A074",
"]. c #DC815E",
"[. c #C38A5B",
"{. c #C28366",
"}. c #D98569",
"|. c #DD8270",
" X c #C79B74",
".X c #E5846C",
"XX c #EB856C",
"oX c #E8896B",
"OX c #F3836C",
"+X c #F18764",
"@X c #EB8975",
"#X c #F68D74",
"$X c #F58671",
"%X c #E99C78",
"&X c #FA9778",
"*X c #5E8186",
"=X c gray60",
"-X c #B5BD93",
";X c gray68",
":X c #B1B1B1",
">X c #D69C91",
",X c #FA9A82",
"<X c #C7BC95",
"1X c #E4A380",
"2X c #F3A987",
"3X c #FDB390",
"4X c #DFD69D",
"5X c #F2C096",
"6X c #D0CEB3",
"7X c #BCCED2",
/* pixels */
"                                                                                          ",
"            . . . . . . . . . . . X                   & . . . . . . . . . . .             ",
"            . . . . . . . . . . . .                   . . . . . . . . . . . .             ",
"            . . . . . . . . . . . *                   o . . . . . . . . . . .             ",
"      O   t : : : : > > > > $ : , 1 =   +       =     5 : : : : > > > : : $ ,   O O       ",
"      . . . 0 d a k l V C J J K W T . . .       . . . W S S A G M m g f p i 0 . . .       ",
"      . . . z d f f m A M A T F Q U . . .       3 . . ` ^ H W A G B h g f f i . . .       ",
"r e   . . . x g m g m A A A S R ` B . . 4 7X  *X; . . ] / / ^ G J B B N l g f * . # e y r ",
". . . 0 0 x k m f `.-X-X<X6X>XB.(  .l.j.-.. . . -.u.u._ ] o.O.o.K K J C V N h p a 0 . . . ",
"O . . d p p m m m S.L.A.J.[.H. .( -.<.s.$.. . o z.a.| | [ _ _ ~ ~ ! K J C V m g p i . . + ",
"O . . z j a c M m A._.!.K.}.U.=.( ' ,.7.{ . . . w.7.h.s.2.:. .@.&.~ ! K J I N c c a . . + ",
"+ . . s g p `.'._.{.P.~.(./.@X1X4X%XZ.4.t.t.x.x.x.9.q.2. .*.#.u. .| O.o.o.J C m h f . . + ",
"+ . . n m f F.D.J.I.~.^.|.|..XOX2XE.M.3.x.x.x.x.x.r.z.z.k.i.w.u.[ [ +.} o.K L B V h . . + ",
"+ . . n m f _.D.L.P.^.|..X.X$X).&XW.c.3.x.z.z.h.r.r.h.z.k.k.i.w.j. . .+.} ! D J M h . . O ",
"+ . . v M m !.!.K.I.^..XXXXXoX$X2XW.n.3.x.z.z.7.f.f.r.z.h.k.k.k.i.u. .+.O.+.J D G m . . + ",
"+ . . I A g  X X{.(.(.XXXX$X#X%X3XOXZ.4.x.z.z.z.z.z.z.z.r.z.z.z.k.1.j.[ ] +.D F H B . . + ",
"+ . . I A m G.J.G..X.X.XOX$X&XE.R.Y.Z.4.z.z.z.z.z.z.z.z.z.z.r.z.k.w.j.*.| +.P F H G . . + ",
"+ . . L A S %.$.] R.oX.XOX#X).Z.2.c.h.7.x.x.z.z.x.z.z.z.z.z.z.z.z.k.2.u.[ @.{ W H A . . + ",
"+ . . C F W R ( R oX2X1X,X3X$XN.4.4.9.w.x.z.z.f.z.z.z.h.z.z.z.z.z.k.w.u.[ @.^ E W S . . + ",
"+ . . C H W { ( E I.+XR.W.+XT.Z.3.t.t.k.z.z.z.x.z.z.z.z.x.z.z.z.r.h.k.j.q.#.! Q W D . . + ",
"+ . . J K Q { [ ( V.M.b.b.C.C.r.>.r.g.x.z.z.z.z.x.z.z.f.z.z.z.z.z.z.k.2.j.y.~ E W F . . + ",
"+ . . G S Q { ] ,.-.3.3.3.4.4.6.z.z.x.z.z.z.z.z.7.z.z.z.z.z.z.z.z.z.k.i. .u.} Q Q K . . = ",
"+ . . G S W { ]  . . .w.x.z.f.g.g.z.k.k.z.z.z.z.z.z.z.z.z.z.r.x.z.z.z.i.u.u.~ E Q S . . + ",
"+ . . G F W ! ] @.w.w.l.z.k.j.j.z.f.z.z.z.z.z.z.z.z.z.z.z.z.z.z.r.z.k.2.u.[ ] E W F . . + ",
"+ . . B S ^ Q O.@.[ 7.0.7.g.z.z.z.z.z.z.z.z.z.z.z.z.z.z.z.f.z.g.g.a.k.1. .} ' ~ Q S . . O ",
". . . M S ! E ) :.[ u.=.l.k.k.z.z.k.z.r.z.z.z.z.z.z.z.z.z.x.z.9.v.a.k.6.i.] ' ) T S . . O ",
"      X . . O.[ [ &.*.1.6.6.k.k.k.r.z.h.z.z.z.z.z.x.z.z.z.z.x.9.q.f.=.1.<.u.] . . <       ",
"      . . . ^ ] / ,.<.2.0.w.k.z.k.k.z.k.z.z.z.z.z.z.r.f.z.z.z.7.k.d.9...:.:.) . . %       ",
"      . . . W +.*.[  .&.m.a.2.k.k.z.k.z.k.7.z.z.z.z.z.z.z.z.z.a.u.2.>.<.u._ ) . . =       ",
"            X . . Y q.;.q.q.2.i.k.k.k.k.z.k.z.z.z.z.z.z.z.f.f.g. .9.>.i.. . 5             ",
"            . . . O.[ ,.' p.u.q.5.9.7.h.z.z.z.z.z.f.h.t.r.w.5.0.i.>.<.1.. . .             ",
"            . . . ] +.j.0.2.q. .k.l.=.l.k.k.k.k.z.k.e.8.k.k.7.5.6.7.<.1.. . &             ",
"                u 7 > 6 ! u.<.*.u.2.w.7.k.k.k.z.h.7.w.z.a.6.6.2.s.. 6 7                   ",
"                  . . . D 1.[ 1.1.q.2.w.u.w.k.k.k.w.i.a.2.:.1.:.1.. . .                   ",
"                :X. . . R &.@.1.1.] #.j.1.u.w.j.j.j.j.i.>.5.i.,.1.. . .                   ",
"                  .   ; q 0 z ! q.] @.@.1.j.u.1.1.1.] i.:.y.8 w 9     @                   ",
"                        * . . C | ) _ ] ] *.[ @.[ 1.[ 1.,.[ . . .                         ",
"                      :X. . X H O.+.) ] ] ] ] ] ] _ [  .' / . . .                         ",
"                        < o 8 q z b W ~ Q ! ~ Q Q ~ ] 8 z f . . .                         ",
"                              3 . . j o.K K K K ! W W . . .                               ",
"                            =X2 . # m J D K K K J K S . . .                               ",
"                            =X= . 1 f V C C L C B B M * & .                               ",
"                                    3 . . . . . . . .                                     ",
"                                    - . . . . . . . .                                     ",
"                                    = . - - < - - = .                                     "
};
