/* XPM */
static char *fd49a04d733d45d1c8f6fa02e1ad80fc56x2wldsze1RSIEx[] = {
/* columns rows colors chars-per-pixel */
"45 45 140 2 ",
"   c None",
".  c #000001",
"X  c #0C0101",
"o  c #070907",
"O  c #000009",
"+  c #0A0B0B",
"@  c #170000",
"#  c #1B0302",
"$  c #110A0B",
"%  c #161616",
"&  c #230505",
"*  c #290504",
"=  c #230C0C",
"-  c #280909",
";  c #3A0304",
":  c #3C0907",
">  c #3D0508",
",  c #3E080A",
"<  c #231B19",
"1  c #251F20",
"2  c gray15",
"3  c #470507",
"4  c #4D0404",
"5  c #540303",
"6  c #5F0303",
"7  c #5B0806",
"8  c #540909",
"9  c #5D0A0B",
"0  c #640505",
"q  c #680707",
"w  c #63060B",
"e  c #6B060B",
"r  c #630A0A",
"t  c #6B0A0A",
"y  c #750307",
"u  c #7D0606",
"i  c #760B0C",
"p  c #7A0A0C",
"a  c #800A07",
"s  c #86070A",
"d  c #850B0D",
"f  c #8B0B0B",
"g  c #920B0C",
"h  c #9A0B0B",
"j  c #8A0C10",
"k  c #9B0E10",
"l  c #9F1110",
"z  c #A40404",
"x  c #A10608",
"c  c #A30C0C",
"v  c #A90B0D",
"b  c #B60505",
"n  c #BA0506",
"m  c #B9060A",
"M  c #B30A0B",
"N  c #BC0A0C",
"B  c #A00F10",
"V  c #AC0E12",
"C  c #B80C14",
"Z  c #A61111",
"A  c #A81114",
"S  c #C30404",
"D  c #C10708",
"F  c #C00D0F",
"G  c #CE090A",
"H  c #D50505",
"J  c #DB0505",
"K  c #D70805",
"L  c #D90806",
"P  c #DB0508",
"I  c #D10E0E",
"U  c #DC0C0C",
"Y  c #C10E13",
"T  c #C90E10",
"R  c #C91011",
"E  c #D31114",
"W  c #E40202",
"Q  c #ED0503",
"!  c #EC0904",
"~  c #E30B0B",
"^  c #ED0C0C",
"/  c #F20706",
"(  c #FF0606",
")  c #F30B07",
"_  c #F40708",
"`  c #FE070B",
"'  c #F30C0D",
"]  c #FD0A0C",
"[  c #E9120E",
"{  c #F4100E",
"}  c #EC0F11",
"|  c #F40F11",
" . c #FA0E11",
".. c #E71314",
"X. c #EC1313",
"o. c #EA1916",
"O. c #E61C1C",
"+. c #EB1E1B",
"@. c #F41011",
"#. c #F91111",
"$. c #F81112",
"%. c #F81113",
"&. c #F21118",
"*. c #F2161E",
"=. c #F4141C",
"-. c #F01B1D",
";. c #E7211B",
":. c #E4241F",
">. c #EE211D",
",. c #EE211F",
"<. c #ED1F20",
"1. c #ED2120",
"2. c #ED2725",
"3. c #E92B22",
"4. c #E92B24",
"5. c #E92B26",
"6. c #F02223",
"7. c #ED332E",
"8. c #EF403A",
"9. c #F24D45",
"0. c #E85C4B",
"q. c #EC5C4F",
"w. c #F75248",
"e. c #F4584C",
"r. c #FBD2CF",
"t. c #FBD5D2",
"y. c #FCD6D2",
"u. c #FCD9D5",
"i. c #FCDBD6",
"p. c #FEDBD7",
"a. c #FEDAD5",
"s. c #FFDFD8",
"d. c #FDE1D9",
"f. c #FEE0D9",
"g. c #FEF5F4",
"h. c #FFF7F6",
"j. c #FEF8F6",
"k. c #FFFDFD",
"l. c white",
"z. c white",
/* pixels */
"                                                                                          ",
"                        o . . . . . . . .       . . . . . . .                             ",
"                        o . . . . . . . .       . . . . . . . . +                         ",
"                        . q r t t t r r .       . 7 9 9 r r 9 9 .                         ",
"                  . . * p P L L U U K K f . . . s S S H K K H H 0 & . o                   ",
"                  . . * v ] ) ' ` ] ) ] Y - . : m ( _ _ _ _ Q ( g # . %                   ",
"                  . 5 q Y  .^ ,.<.,.^ { E p 3 p G ] _ ^ ' ^ ^ ` v 7 4 $                   ",
"              . * t M C ^  ...l.l.l.[ ' @.I Y R ^ } } ' ' ' ' ' ~ M x , & .               ",
"              . & f ` ' #.] ..l.l.l... .#.#. .{ ' ' | @.' ' | ' _ _ ( i # .               ",
"              . & k ] ' &.&.O.s.l.s.O.=.*.&.@.@.@. .] ' @.@.@.' ' ^ ( u & .               ",
"              . * B ` +.8.w.0.l.l.l.q.e.9.,.@.@.&.X.' @.@.@.@.' | ^ ( d & .               ",
"              . * Z ` ;.t.l.d.g.l.g.d.l.s.3.] #.@.@.#.@.@.@.@.| ' ^ ( d # .               ",
"              . * Z ` +.l.l.l.l.l.l.l.l.l.2.] #.X.@. .@.@.@.@.' ' ^ ( d & .               ",
"              . = Z ` +.l.l.l.l.l.j.l.l.l.2.'  .@.X.{ @.{ @.@.@.' ' ( d & .               ",
"              . * Z ] ;.g.l.l.l.l.l.l.l.l.5.' #.&.@.{ @.@.@.@.' ^ ^ ( d # .               ",
"              . * Z  .+.l.l.l.l.l.l.l.l.l.5.{ #.@.#.| @.@.@.@.{ | ' ( d & .               ",
"              . - Z ] +.r.l.l.l.l.g.i.l.a.6.{ $.@.@.@.@.@.@.@.' | ^ ( d & .               ",
"              . * B ] { +.+.:.l.l.l.:.*.>.&.#.{ @.{ @.@.@.{ @.@.| ^ ( d & .               ",
"              . & l ] '  . .X.l.l.l.X.@.$.&.$.%.@.@.@.@.@.@.@.{ } ) ( d & .               ",
"              . - k ] ' @. .o.y.l.s.o.$.$.$.&.@.@.@.@.@.@.@.@.' @.) ( d # .               ",
"              . * g ] { { @.@.7.7.7.@.&.#.$.@.@.@.' @.@.@.@.@.' ^ ^ ( d & .               ",
"              . & g ] ) X.@.@.@.| &. .@.&.$.@.@.@.@.@.@.@.@.@.{ | ) ` d & .               ",
"              . * f ( ) | @.@.{  .X.{ @.@.@.@.@.@.@.@.@.@.@.| ' | ^ ` j # .               ",
"              . & d ` ) ^  .{ { X. .'  .@.@.@.@.@.@.@.@.@.@.@.' ^ ) ( d & .               ",
"              . * a ( ' ^ | | @.@. .{ [ X.@.@.| @.@.| @.{ ' @.' ' ' ( s & .               ",
"              . & u ( _ ^ ) ' @.@.@.@.@.' @.@.@.@.@.@.@.@.| @.' ' ) ( a & .               ",
"                  * m C ~ ' { @.' @.@.@.@.@.@.{ @.@.@.@.@.@.| ' ~ F N - < %               ",
"                  . : 8 C  .' ' @.@.@.@.@.@.@.@. .{ @.@.' ' X.] C 4 : 2                   ",
"                    . * V ] ^  .' @.@.@.@.@. .@.| @.@.@.@.| ' ] v # .                     ",
"                      X v ` ' ' @. .{ @.@.@.@.@.@.@.@.| { ' ' ] Z # .                     ",
"                      . c ` ' ' ' ' | @.' @.@.@.@.@.@. .{ ) ' ` c & .                     ",
"                      . g ( ' _ [  .' X.X.@.@.@.| @.|  .[ ^ ' ` h & .                     ",
"                      . r ( ^ { } | ] X.| | @.@.@.@.@. .{ ' ' ( r = .                     ",
"                      + . i j U _ | | |  .&.@.@.@.' ' ' _ U g d . <                       ",
"                          . ; F ] } ^ | | @.@.@.@.@.{ ' ] Y & &                           ",
"                          . # F ( | [ @.' @.@.@.@.@.' ' ] Y . .                           ",
"                          . # N ^ _ ' } ' @.@.@.| ' ' ' ) N X .                           ",
"                          O # m ! _ ' ^ ' |  .@.| | ' _ Q D X .                           ",
"                          . X 9 Q _ ' ^ ' @.| | ' | ^ ' _ n X .                           ",
"                          . . . b b ^ ^ X.) ' ^ ^ ) ~ m b 8 . .                           ",
"                              . w e H _ ^ ' ' ' ^ ` G y e .                               ",
"                                . X m ( _ _ _ _ _ ( z X O                                 ",
"                                . X 0 W J J J J J W 6 X .                                 ",
"                                    . 8 0 q t t 0 5 .                                     ",
"                                    . . . . O . . . .                                     "
};
