/* XPM */
static char *_c8b4d355ca247fa98522faa0960bdcfF922UY5hEAbdsRFN[] = {
/* columns rows colors chars-per-pixel */
"50 50 233 2 ",
"   c None",
".  c #050406",
"X  c #06050B",
"o  c #09070B",
"O  c #06080D",
"+  c #0B0A0E",
"@  c #090607",
"#  c #140C0D",
"$  c #160A07",
"%  c #17110E",
"&  c #0C0D12",
"*  c #110F13",
"=  c #0E1116",
"-  c #0F131A",
";  c #131214",
":  c #1B1314",
">  c #14141A",
",  c #1A161C",
"<  c #16191D",
"1  c #1A1A1C",
"2  c #1E1816",
"3  c #231513",
"4  c #291614",
"5  c #231719",
"6  c #241B1C",
"7  c #2C1C1A",
"8  c #291A16",
"9  c #361F1B",
"0  c #27170E",
"q  c #2B201D",
"w  c #32221C",
"e  c #3A211F",
"r  c #1C1C22",
"t  c #161921",
"y  c #261E21",
"u  c #1D2125",
"i  c #1E2128",
"p  c #232224",
"a  c #2C2324",
"s  c #232429",
"d  c #2B2629",
"f  c #2C2C2C",
"g  c #27292C",
"h  c #352421",
"j  c #3B2625",
"k  c #332C2D",
"l  c #3B2E2E",
"z  c #3A2926",
"x  c #2D2D32",
"c  c #2F3134",
"v  c #323236",
"b  c #3C363A",
"n  c #3B3B3B",
"m  c #373638",
"M  c #322E31",
"N  c #5F211B",
"B  c #432B27",
"V  c #4B332B",
"C  c #45312C",
"Z  c #54332A",
"A  c #563529",
"S  c #483735",
"D  c #543931",
"F  c #5D3D33",
"G  c #563833",
"H  c #683A2C",
"J  c #753A2F",
"K  c #5A433B",
"L  c #5B4235",
"P  c #4A453F",
"I  c #664234",
"U  c #68473A",
"Y  c #754B39",
"T  c #7C533D",
"R  c #6D513E",
"E  c #3C3D40",
"W  c #423E41",
"Q  c #3F4042",
"!  c #4D4C4C",
"~  c #454345",
"^  c #584A4B",
"/  c #59504E",
"(  c #565657",
")  c #4A4C51",
"_  c #684B46",
"`  c #754D43",
"'  c #6A5147",
"]  c #7C5545",
"[  c #7C564A",
"{  c #785949",
"}  c #725D54",
"|  c #7A5B54",
" . c #605151",
".. c #7C6659",
"X. c #605B64",
"o. c #636262",
"O. c #756463",
"+. c #933B34",
"@. c #88362F",
"#. c #96463B",
"$. c #88553D",
"%. c #96543E",
"&. c #8C4332",
"*. c #9B4B42",
"=. c #865A45",
"-. c #8C5C44",
";. c #8B5E4B",
":. c #865746",
">. c #925C43",
",. c #965948",
"<. c #855E53",
"1. c #905F51",
"2. c #A7564A",
"3. c #AA5B51",
"4. c #BC5E54",
"5. c #8E6149",
"6. c #93644A",
"7. c #9B654B",
"8. c #9D6B4F",
"9. c #976549",
"0. c #856453",
"q. c #8A6758",
"w. c #9B6A54",
"e. c #956E5B",
"r. c #9C6C5A",
"t. c #976654",
"y. c #99715D",
"u. c #A5694D",
"i. c #A26C53",
"p. c #A96B56",
"a. c #A5725B",
"s. c #AC745C",
"d. c #AC795F",
"f. c #A87255",
"g. c #BA755C",
"h. c #B47B5C",
"j. c #B7785B",
"k. c #B46958",
"l. c #877168",
"z. c #9C7565",
"x. c #9D7766",
"c. c #8B6F69",
"v. c #A37563",
"b. c #AA7B65",
"n. c #A67967",
"m. c #BC7C63",
"M. c #B47B64",
"N. c #B46D61",
"B. c #C4695E",
"V. c #C36D64",
"C. c #C67868",
"Z. c #AA806C",
"A. c #A68066",
"S. c #BD8364",
"D. c #B2846B",
"F. c #B4886E",
"G. c #BA8669",
"H. c #AE8371",
"J. c #A38172",
"K. c #B18572",
"L. c #B48974",
"P. c #BC8C75",
"I. c #B98977",
"U. c #BF917C",
"Y. c #C38164",
"T. c #C4836A",
"R. c #C48B6D",
"E. c #C9886A",
"W. c #C38C74",
"Q. c #CC8C73",
"!. c #C28C7B",
"~. c #C78672",
"^. c #D38C74",
"/. c #D68674",
"(. c #C4927C",
"). c #CA937A",
"_. c #CD9B7E",
"`. c #CA9474",
"'. c #D39273",
"]. c #DB947B",
"[. c #DD9B7D",
"{. c #D5967C",
"}. c #D18B6E",
"|. c #BC9481",
" X c #C29482",
".X c #CA9683",
"XX c #CC9A85",
"oX c #CD9E8B",
"OX c #C49985",
"+X c #D39B83",
"@X c #DD9C83",
"#X c #D79B88",
"$X c #E19E87",
"%X c #CCA28E",
"&X c #DBA284",
"*X c #D4A28C",
"=X c #DCA48B",
"-X c #DAA68B",
";X c #D5A692",
":X c #DCA593",
">X c #DBAA95",
",X c #DDAD9A",
"<X c #E2A184",
"1X c #E3A48B",
"2X c #E6A98D",
"3X c #E3AB93",
"4X c #ECAC94",
"5X c #E3AC9A",
"6X c #EBAE9C",
"7X c #E3A693",
"8X c #E4B39C",
"9X c #ECB49C",
"0X c #EAB398",
"qX c #F1B39C",
"wX c #F0AF99",
"eX c #DDADA0",
"rX c #E5B4A2",
"tX c #ECB5A2",
"yX c #ECBAA4",
"uX c #EDBCA9",
"iX c #F3B6A3",
"pX c #F2BAA5",
"aX c #F3BCAA",
"sX c #F8BEAD",
"dX c #F4C1AD",
"fX c #F7C2AB",
"gX c #F6C4B1",
"hX c #FAC6B4",
"jX c #FAC9B5",
"kX c #FBCCB9",
"lX c #F7C8B4",
"zX c #BBB9C1",
"xX c #DBCDC7",
/* pixels */
"                                                                                                    ",
"                                          < s > > = = u                                             ",
"                                g 1 s t < c v v c i c u v n = = r !                                 ",
"                            m = = = < g u < = & & & = r r n 1 + O O - g Q !                         ",
"                          < ; & & r s < 1 = % 2 w l D ^ _ } ^ V w % O + t f ~                       ",
"                      ( ; - & = t u ; > % z ' q.e.z.x.x.x.z.e.e.{ L q . > t u f                     ",
"                  p ! i i = & t t < = 2 ' e.x.n.Z.K.H.K.L.Z.Z.A.y.0.' w + < g < m                   ",
"                  1 p + < ; = t t & % { x.A.F.L.P.U.(.|.(.U.L.K.A.y.e.{ w + t u u                   ",
"                % P 1 + & & t > = + ..A.D.P.(.OXXXoXXXoXXXOX X(.P.K.A.y.{ w ; q g M                 ",
"              1 b z 1 + & > r - + L A.F.P.(.XX%X*X;X;X>X;X*XoXoXXX(.L.K.a...2 = m = n               ",
"              * f % p + & - < = % D.D.P._.*X*X-X,X5X8X5X,X>X>X>X%X%X%XU.L.A.R = v = v               ",
"            p k % 2 + u > t - @ l.D.F.`._.&X>X8X8XrXrXrXtXrX8X8X,X>X-X%X(.L.z.q p f ! (             ",
"            = p ; + = p ; > & w G.G.G._.&X-X8X8XyXuXuXaXuXuXuXyXrXeX,X;X%XU.J.L ; g p Q             ",
"            < 1 = + = < > 1 + q.G.G._._.3X3X8XyXuXaXgXgXdXgXdXdXdXrX8X,X*XXXL.q.% p p n             ",
"          p & ; + + = < < ; : F.S.P.`.-X2X8XyXaXgXgXgXlXlXlXlXgXdXdXyXrX>X*XU.n.8 g P ~ Q           ",
"          > O O + & - u r + F G.P._.[.2X3XyXuXdXaXgXlXjXjXkXkXlXgXgXuXyX8X>XOXK.D < f g o.          ",
"          - & O X - > r = $ e.P.`._.-X0X8XdXyXdXdXdXgXlXjXkXkXkXjXlXdXuXrXeX;X|.q.+ y E !           ",
"        = O X O & > r r O 7 F.`._.-X-X3X3X0X9XdXdXdXdXgXjXkXkXkXkXgXdXdXyXrX,XoXn.& x E !           ",
"        > O & X & * r = ; ' q.G Z R A._.>X8X9X8XyXdXdXfXlXjXkXjXhXdXgXuXuXeXeX%Xn.: x E c           ",
"        t O O O & t t * r C 8 4 7 q % q 0 D U.&X0X9XyXpXfXfXfXfXdXaXyXrX>X|.<.' l * x d s           ",
"        + X O & X r & - 5 U !.(.&XU.I.0.G h Z $.0X[.0X0X0XfXyX0XpX0X`.p.U e j G O.S y p f (         ",
"        & X & O - r * - B v.M.W.R.`.XX.X&X).s.f.`._.[.2X0X0XpX0X3X-XW.M.m.%X;X%X|.q.: p g (         ",
"        & X & & y & * > G :.i.p.w.;.:.e.L.T.R.G.S.R.`.[.0X0XpX0X2X&X#X.XoX.X XM.x.C , x q !         ",
"        O X O - i & - : _ ,.t.` C S c.^ ..z.p.G.S.S.`.[.0XyXfX0X#X@X.X1.| q.J U S 5 > k s !         ",
"        , & X s & t : 7 [ F j y > : + o : c.:.s.A.>.R.=XuXgXgX3X/.N.Z C E t , b ; < y v f !         ",
"          * & , * = , B [ J $ o t X., , , xX<.t.u.>.S.2XdXjXgX#X#X<.} y y t zX& O & d b p           ",
"          o s & = * , F e.r.x.| F <.` z.v.I.I.~._.8.R.-XsXkXgXoXtX!.n.<. .W _ y & & M W 6           ",
"          > ; & * * 7 ` v.D.W._.+X+X).).).!..X+X`.S.R.3XgXkXjX:XeX:X#X.X!.!.M.<.F 6 d b f           ",
"          r * o ; @ 7 1.b.G.Q.#X7X3X5X5X5X5X5X=XW.T.^.=XaXkXsXrXeXtXeXeX:X#X.Xn.[ j y l f           ",
"          1 + + > @ h t.N.m.).=X6XtXiXrXtX8X3X+XQ.m.C.'.tXkXhXiX6XaXiX6X5X:X#XI.1.S y l             ",
"          > o = & o B 7.b.T.{.$X6XiXaXaXyXtX7X@XQ.g.g.C.6XkXjXuXiXsXaXtX6X5X:XC.i.V y S             ",
"          ; o & @ & j 1.d.S.^.$X4XiXiXsXiX6X7X+XE.p.N.C.6XsXkXtXsXaXsXiXtX5X:X Xr.j y ^             ",
"          ; & & . + j :.a.S.^.[.2XqXpXpXqX4X[.E.k.u.g.C.4XiXsXiXiXiXiXiXtX6X:X Xt.5 8 O.            ",
"            * & X + y H 7.M.E.{.[.0XqXqX4X2X[.u.E.Y.C.Y.wXsXhXsX6X$X2XwX6X6X,X.X` : y /             ",
"            & & o & 5 V -.f.S.'.[.2X4X4X2X[.[.2.C.Y.Y.}.wXiXfXjXhX7X$X$X4X5X;X(.e # C y             ",
"            < o . O 5 h U 9.h.E.'.[.[.[.[.[.wXY.&.J H k.].$X$X^.$X7X4X$X$X#XXXD.3 : ^               ",
"              & . o q q V T u.j.Y.'.'.'.].[.$X$XC.u.>.&.C.[.@X^.$X4X5X$X+XQ.!._ % : /               ",
"              & O . a w B I >.u.j.Y.C.E.'.^.'.^.}.'.$X[.'.[.:X7X7X7X=X+XQ.m.b.4 ; l 5               ",
"                1 . q z z I $.u.j.j.j.S.E.Y.~.~.}.].$X]./.[.4X7X*X*X+X).h.>.Z : *  .                ",
"                  X @ l e A Y 8.f.h.h.h.7.s.~.C.E.E././.^.].$X@X*XoX!.b.i.] 9 ; z !                 ",
"                    . a z Z U $.8.f.S.f.8.Y N J 2.2.2.4.B.C.V.k.3.,.b.w.6.A 3 ; ^                   ",
"                    o.@ 7 C H Y 5.8.8.>.u.u.,.3.*.+.+.+.+.+.*.3.2.b.a.5.] w a a S                   ",
"                        + 7 F I T 5.5.$.$.>.,.#.*.V.V.V.C.V.V.N.b.v.w.=.D $ 5 k                     ",
"                          z 9 I U T $.-.-.>.>.%.+.*.2.2.3.3.3.s.a.w.=.R 8 a 6 5                     ",
"                            S D L U R =.5.%.6.7.3.,.%.%.,.u.i.w.w.5.` V : a q k                     ",
"                                l.U I Y T -.6.8.i.i.u.p.a.a.a.r.5.] L $ a 5 : M                     ",
"                                    } I R T =.5.6.7.7.w.r.r.w.t.] U 3 : a 5 r                       ",
"                                        } R ] T :.;.6.;.;.q.;.] U w * a * o.                        ",
"                                              } { { { [ { { { K 0 % a !                             ",
"                                                              f (                                   "
};
