/* XPM */
static char *_75a6626c5004cfa903005ee9976406b46SGkLHB6OOiQgdG[] = {
/* columns rows colors chars-per-pixel */
"50 50 229 2 ",
"   c None",
".  c black",
"X  c #090D08",
"o  c #1A1512",
"O  c #200F20",
"+  c #113227",
"@  c #13461D",
"#  c #1F4D2E",
"$  c #2F6E37",
"%  c #7C761C",
"&  c #747321",
"*  c #256060",
"=  c #185868",
"-  c #44734A",
";  c #32883B",
":  c #2AA63F",
">  c #19AF43",
",  c #1CBD4A",
"<  c #2EBC48",
"1  c #37B84C",
"2  c #4FAA6D",
"3  c #48B35A",
"4  c #2CC44D",
"5  c #2CC94F",
"6  c #28C548",
"7  c #35C74C",
"8  c #2ECC51",
"9  c #23C950",
"0  c #32CE54",
"q  c #37C758",
"w  c #2ED355",
"e  c #2EDD5C",
"r  c #31D355",
"t  c #32D55A",
"y  c #32DC5B",
"u  c #33D956",
"i  c #2BD04E",
"p  c #2EE258",
"a  c #33E55D",
"s  c #3AE35E",
"d  c #37DC63",
"f  c #34E463",
"g  c #35EA66",
"h  c #39EC65",
"j  c #36E668",
"k  c #3BF86B",
"l  c #3DFE72",
"z  c #3DFB79",
"x  c #2EE066",
"c  c #47D559",
"v  c #4EC84B",
"b  c #68D553",
"n  c #7DCA58",
"m  c #4EEB51",
"M  c #66E85D",
"N  c #45F669",
"B  c #41FF74",
"V  c #45FE7B",
"C  c #4BFF7A",
"Z  c #54FF7C",
"A  c #4AEC6F",
"S  c #6EE568",
"D  c #9BB53F",
"F  c #B4B82A",
"G  c #BCB93C",
"H  c #E1DA1C",
"J  c #FFFF0D",
"K  c #F3EE1E",
"L  c #FAEF1D",
"P  c #FFFE16",
"I  c #F4F21C",
"U  c #FAF31C",
"Y  c #FEFC1C",
"T  c #F9F617",
"R  c #E2DA32",
"E  c #D9E83C",
"W  c #D4EF3D",
"Q  c #EAED2B",
"!  c #EAEC28",
"~  c #F3EF25",
"^  c #EBF22B",
"/  c #FEFD23",
"(  c #FFFE2C",
")  c #F4F526",
"_  c #E4EE3B",
"`  c #E6EA37",
"'  c #E7F438",
"]  c #FFFF33",
"[  c #FEFF3C",
"{  c #F2FE37",
"}  c #D4CC24",
"|  c #9AB640",
" . c #8AD755",
".. c #AAD244",
"X. c #B4D549",
"o. c #BEDB4B",
"O. c #BADA45",
"+. c #B9DD53",
"@. c #A8D04A",
"#. c #89E65F",
"$. c #99E35A",
"%. c #B6E65B",
"&. c #ABE156",
"*. c #9DF078",
"=. c #C5DE4B",
"-. c #C3DD53",
";. c #D7D651",
":. c #C9E24C",
">. c #D8E747",
",. c #CBE555",
"<. c #D5EB5B",
"1. c #D7EA59",
"2. c #CBF559",
"3. c #E0EE42",
"4. c #E8F649",
"5. c #FAFC58",
"6. c #E7F553",
"7. c #D3F56B",
"8. c #E4EB65",
"9. c #EEF66B",
"0. c #EBF664",
"q. c #F6FA69",
"w. c #E9F973",
"e. c #FDFE74",
"r. c #1C7FAF",
"t. c #66BAB5",
"y. c #45FD83",
"u. c #4BFE83",
"i. c #45FF8D",
"p. c #4EFF8D",
"a. c #54FC8A",
"s. c #4AFF92",
"d. c #4CFF9C",
"f. c #45FF98",
"g. c #51FF94",
"h. c #5BFF93",
"j. c #53FF9C",
"k. c #5AFF9C",
"l. c #68FF99",
"z. c #6AFF8D",
"x. c #4DFFA3",
"c. c #59FFA4",
"v. c #5BFFB3",
"b. c #67FFA9",
"n. c #7BFFAC",
"m. c #67FFB8",
"M. c #77FFBB",
"N. c #1891C6",
"B. c #17B7DC",
"V. c #19A4C4",
"C. c #029EED",
"Z. c #08A3ED",
"A. c #12AAED",
"S. c #06B1EE",
"D. c #04A8F3",
"F. c #06B7F3",
"G. c #32B7E6",
"H. c #32CBD9",
"J. c #0DC4EC",
"K. c #0CCBEC",
"L. c #15C9EB",
"P. c #16D6ED",
"I. c #05C4F3",
"U. c #0CCAF4",
"Y. c #02CDFC",
"T. c #07C8F8",
"R. c #12CBF2",
"E. c #0CDDF5",
"W. c #03D2FC",
"Q. c #02DDFD",
"!. c #0AD9F6",
"~. c #14D5F4",
"^. c #18D8F3",
"/. c #08D5EF",
"(. c #2DDCED",
"). c #26C7E4",
"_. c #02E2FF",
"`. c #09E6FA",
"'. c #17E6FC",
"]. c #00FEFF",
"[. c #0BFEFF",
"{. c #14FEFF",
"}. c #1DFCFF",
"|. c #16F3FA",
" X c #3DE9F5",
".X c #22FFFF",
"XX c #29FEFF",
"oX c #3CFFFF",
"OX c #34FAFE",
"+X c #25E7FB",
"@X c #5ADAD9",
"#X c #44D1D8",
"$X c #74DCCC",
"%X c #66DAD6",
"&X c #79FFD7",
"*X c #67F5D3",
"=X c #49DFE7",
"-X c #46FEFF",
";X c #5BFCFD",
":X c #70F2EE",
">X c #84FF9C",
",X c #B4FF88",
"<X c #89FFB2",
"1X c #B5FFAF",
"2X c #E5F689",
"3X c #FFFF8D",
"4X c #FFFF87",
"5X c #FFFF9A",
"6X c #DBF7BB",
"7X c #DBEFAD",
"8X c #E5F8A5",
"9X c #FFFFA2",
"0X c #FFFFBB",
"qX c #8BDFCD",
"wX c #87E8D9",
"eX c #99FFD7",
"rX c #8FF1D0",
"tX c #B0F3D2",
"yX c #89FFE6",
"uX c #94FFEA",
"iX c #87FCFF",
"pX c #B4FBF4",
"aX c #A7FCED",
"sX c #D9F9C7",
"dX c #D7F7D7",
"fX c #C5EED1",
"gX c #E3FAC6",
"hX c #FFFFD2",
"jX c #CFFAF3",
/* pixels */
"                                          N.A.Z.Z.Z.Z.Z.A.N.                                        ",
"                                ;XXX].].Q.Y.D.C.C.C.C.C.F.Y.Q.].[.oXiX                              ",
"                            XX{.Q._.Q.W.Y.F.F.S.S.S.D.S.S.F.I.U./.E.P.]..X                          ",
"                        XX}.|._.Q.W.W.I.I.T.I.I.F.I.J.U.J.J.J.J.L././.E.|.XXOX                      ",
"                      .X}.'.W.W.Y.W.W.Q._.`.Q.!.!.E.!.`.'.!.E./.K.K.L.P.P.{..XXX                    ",
"                  oXOX'.~.U.U.T.Y.Q._.].].].].[.{.}.{.[.[.].].[.`.P.P.P.'.|.[.}.XXoX                ",
"                = V.'.^.U.J.W.W.Q.].[.G..                   o B.].[.`./.`.[.].R.O                   ",
"                }.+X^.L.~.E._.+X X                                  -X.X].{.oX                      ",
"            XXXX'.L.L.^.E.B.r.                                          -X;X                        ",
"            `.^.R.L.^.^.+XoX                                                                        ",
"        ;XOX^.R.R.~.'.XX                                                                  &Xm.      ",
"        ;X=X(.).^.^.~.                                                                N Z k.x.      ",
"        ;X=X#XH.(.H.+                                                               + k i.u.s.      ",
"    . * @X@X#X=X X                                                                x.s.B k B B ; X   ",
"    pXaX:X%X@X$Xt.jX                                                          &Xk.u.y r y h f.m.m.  ",
"    pXwX$X$X%X:X                                                            rXb.8 4 4 4 d u.x.      ",
"    jXqXqXqXwXpX                                                        eXm.u 8 5 5 8 g V l         ",
"  dXjXfXqXtXwXjX                                                      M.d t 9 4 4 w j 0 q           ",
"  gXdXfXfXfX2 rX                uX                                  < r p 8 6 < 5 0 e a.            ",
"  hXgX7XdXdX                  *.z.                                e V j 8 5 4 6 u l.eX              ",
"  hX8X7XgXgX                  h.y.g.A                           c.y.y 5 5 4 0 z.eX                  ",
"  0Xw.2X8X6X                  l.p.i.p.N -                   v.g.j w 0 8 t V b.                      ",
"  9X9.w.2X8X                  b.p.B l B h n.tX          yXM.j u w 8 d N j.j.                  eXaX  ",
"  9X0.8.9.q.                  l.u.B h f a g g N <X<XeXn.t e w r t f y.l @                   >Xs.b.  ",
"  3X9.0.q.q.                  v.j.u.k y w y d 5 6 6 q < u w 8 e g a 7 m                   s.p.p.p.g.",
"  3X9.9.9.e.                  *Xg.j.p.h u 8 8 y d y y w 8 8 w s g 8                       f.g.g.p.C ",
"  5X8.8.8.9.                      x.d.V g t 8 5 5 8 4 5 5 w a s <X                        i.a.u.V V ",
"  9X<.<.8.0.                          s.x.B d w 8 8 8 r y C &XyX                          d.C B b.  ",
"  9X1.1.6.5.                            X y.d.B h h h u.c.b.                              b.u.B &X  ",
"  5X6.>.4.4.                                $ d.d.d.d.x.                                  c.u.l uX  ",
"  e.3.3.4.4.                                  c c t 1 m                                   p.u.B &X  ",
"  0.' ' ' ' F _                                                                       l q y.V V b.  ",
"  3.{ ' ` ^ ` 5.                                                                      b.C C N V v.  ",
"    ( ` ! ^ ( ]                                                                       g.k h h B yX  ",
"    [ ! ! ! ) Y                                                                       N f y a l uX  ",
"    5.] Y ~ Y Q G 8.                                                              aX3 d y y k j.yX  ",
"    5.% I I I P J                                                                   k 8 0 y f $ 3   ",
"        P T U U Y H .                                                           - q e 4 8 f l       ",
"        / / U U Y Y I                                                           f t w 4 t A h.      ",
"        ( / Y U U Y P ]                                                       k.g t 5 8 f Z l.      ",
"            Y / L L U ~ / ]                                               b.d t 8 9 5 w N           ",
"            ( / Y L L U T H F                                           ; 1 9 q < 0 s c.m.          ",
"                P P Y K T T P Q ;.                                  *.S S c > < 0 s z               ",
"                & } Y L L K U U T / [ R .                   . n w.7.#.b v v > 5 r : #               ",
"                  ] Y ) U ~ K ! ! Q ^ { ] 5.e.3X9X9X9X9X3Xe.w.7.7.$.n b v v , t C &X                ",
"                      ( Y ) K ~ ! Q ^ _ ' _ >.;.,.,.<.<.<.<.,.,.&. . .b b c x n.                    ",
"                        ( [ ~ ) ) ^ Q E E >.E =.o.o.o.+.:.,.+.+.&.$.#.#.S 1X*X                      ",
"                            [ / ! ^ ' E E E =.X.X.X.=.+.=.:.+.%.%.%.#.,X1X                          ",
"                                e.5.[ [ { W W O.....X.o.:.<.2.7.2X8XsX                              ",
"                                          D -.@.....X...-.|                                         "
};
