/* XPM */
static char *_da3e1ff5bc64fccd91e8864527f2651gRpNIDXhVlfmbpz9[] = {
/* columns rows colors chars-per-pixel */
"50 54 251 2 ",
"   c #060005",
".  c #0C0005",
"X  c #06000B",
"o  c #0C000C",
"O  c #130005",
"+  c #1C0006",
"@  c #14000C",
"#  c #1B000C",
"$  c #0C0011",
"%  c #130012",
"&  c #1C0012",
"*  c #220005",
"=  c #2A0006",
"-  c #24000C",
";  c #2B010C",
":  c #2E0A0D",
">  c #350206",
",  c #3E0103",
"<  c #3C0B05",
"1  c #34010C",
"2  c #3B030C",
"3  c #34090D",
"4  c #3B0A0C",
"5  c #3F100B",
"6  c #240111",
"7  c #2B0212",
"8  c #2D0912",
"9  c #330311",
"0  c #3B0511",
"q  c #340B13",
"w  c #3C0C13",
"e  c #3B0B1A",
"r  c #3A1312",
"t  c #480304",
"y  c #430C07",
"u  c #43040B",
"i  c #4A050B",
"p  c #410C0E",
"a  c #4C0C0C",
"s  c #510907",
"d  c #570609",
"f  c #530C0C",
"g  c #5C0D0B",
"h  c #4A1108",
"j  c #5D1206",
"k  c #53130D",
"l  c #591609",
"z  c #5C140D",
"x  c #541C0C",
"c  c #420411",
"v  c #430C13",
"b  c #4B0D11",
"n  c #530D13",
"m  c #5C0A12",
"M  c #441213",
"N  c #4B1313",
"B  c #4D1B13",
"V  c #471818",
"C  c #531413",
"Z  c #5B1412",
"A  c #551C14",
"S  c #5B1C13",
"D  c #56181A",
"F  c #5A1D1A",
"G  c #650E0B",
"H  c #62150B",
"J  c #671709",
"K  c #69150D",
"L  c #6A1B0C",
"P  c #7B1708",
"I  c #731B0C",
"U  c #7A1E09",
"Y  c #641915",
"T  c #631C14",
"R  c #6C1D13",
"E  c #621B1B",
"W  c #741C13",
"Q  c #5B220F",
"!  c #532213",
"~  c #5D2213",
"^  c #5A2219",
"/  c #59261B",
"(  c #67280E",
")  c #73230D",
"_  c #79230E",
"`  c #642415",
"'  c #6B2216",
"]  c #662B14",
"[  c #6B2B14",
"{  c #65241A",
"}  c #6A261A",
"|  c #6C291A",
" . c #752214",
".. c #7B2513",
"X. c #732E14",
"o. c #7C2914",
"O. c #772419",
"+. c #7A241A",
"@. c #742B1B",
"#. c #7D291A",
"$. c #6C3115",
"%. c #6C3019",
"&. c #723214",
"*. c #7C3213",
"=. c #73321A",
"-. c #79381C",
";. c #722621",
":. c #861E14",
">. c #8B2D05",
",. c #83270D",
"<. c #8A260C",
"1. c #842B0E",
"2. c #8D2C0D",
"3. c #922D0D",
"4. c #992F0B",
"5. c #83340D",
"6. c #8D3609",
"7. c #8D320D",
"8. c #953207",
"9. c #94330D",
"0. c #99350D",
"q. c #94390E",
"w. c #9C3A0D",
"e. c #822412",
"r. c #8D2612",
"t. c #842B13",
"y. c #8C2D12",
"u. c #84261C",
"i. c #832B1B",
"p. c #8A2E1C",
"a. c #922E13",
"s. c #952B15",
"d. c #9A2E14",
"f. c #932E19",
"g. c #843414",
"h. c #8E3112",
"j. c #8B3A13",
"k. c #8C3219",
"l. c #81391C",
"z. c #883819",
"x. c #933212",
"c. c #9A3513",
"v. c #953A12",
"b. c #9C3A13",
"n. c #943319",
"m. c #9B341A",
"M. c #913A1B",
"N. c #9D3B1B",
"B. c #A63409",
"V. c #A1350E",
"C. c #A23B0D",
"Z. c #A93D0D",
"A. c #A23614",
"S. c #A43C14",
"D. c #AA3D13",
"F. c #A1341A",
"G. c #A33B1A",
"H. c #AC3E1A",
"J. c #B03D16",
"K. c #862D22",
"L. c #892A22",
"P. c #8E3320",
"I. c #9A3722",
"U. c #94420B",
"Y. c #9C410E",
"T. c #8D4315",
"R. c #8E411C",
"E. c #8B4D1B",
"W. c #934415",
"Q. c #9C4413",
"!. c #944A16",
"~. c #9C4B13",
"^. c #93461B",
"/. c #984219",
"(. c #944B1C",
"). c #9A4B1B",
"_. c #9F5115",
"`. c #94551F",
"'. c #9C521B",
"]. c #9D5A1E",
"[. c #A5420D",
"{. c #A9450B",
"}. c #AB430C",
"|. c #B2440D",
" X c #B44B0D",
".X c #B94B0D",
"XX c #B5530F",
"oX c #A44313",
"OX c #AB4313",
"+X c #A34B16",
"@X c #AC4B12",
"#X c #A3431A",
"$X c #AA431A",
"%X c #A44C1B",
"&X c #AA4C19",
"*X c #B14514",
"=X c #B34B15",
"-X c #BB4C14",
";X c #B1451A",
":X c #BA4B18",
">X c #A15116",
",X c #A55314",
"<X c #A55517",
"1X c #AA5516",
"2X c #A65915",
"3X c #AC5C15",
"4X c #A3541B",
"5X c #AC551B",
"6X c #A45A1F",
"7X c #AC5C1B",
"8X c #BA5617",
"9X c #B35D15",
"0X c #B15519",
"qX c #B35D1B",
"wX c #A76218",
"eX c #AF601B",
"rX c #B66417",
"tX c #B7631D",
"yX c #BB621D",
"uX c #BD6D1B",
"iX c #894523",
"pX c #984A24",
"aX c #8E5024",
"sX c #9D5222",
"dX c #A25422",
"fX c #A45A22",
"gX c #AB5D24",
"hX c #A35C2A",
"jX c #A7592D",
"kX c #B45E22",
"lX c #BA5F20",
"zX c #A76125",
"xX c #B56421",
"cX c #BA6626",
"vX c #BD6B22",
"bX c #BA7824",
"nX c #C05F1C",
"mX c #C5651C",
"MX c #C66C19",
"NX c #C9751B",
"BX c #D07D1E",
"VX c #C26F22",
"CX c #C47223",
"ZX c #C97A25",
"AX c #CC871B",
"SX c #D2861D",
"DX c #D0941E",
"FX c #C98527",
"GX c #D18424",
"HX c #D78A24",
"JX c #D6982E",
/* pixels */
"_.+X_.>X>X>X>X<X<X1XuX6 @ ^.7X2X<X1X<X<X1XtX+ _ tX3XuXh % = &X3X2X<X2X2XrX7.; a ; 7 & * eX3X1X,X,X_.",
"o.t.t.1.t.1.t.t.y.1.c.i.A [.2.r.t.t.t.1.,.9.o.c.y.k.V.OX- > v.x.y.y.y.y.x.&Xo.d g a & qXS.h.h.h.y.5.",
"2.y.y.t.y.2.2.h.y.3.v.p.N c.7.x.h.h.2.h.h.g.a.7.x.k.c..X@  .c.9.x.y.h.2.x.w.I t b.S.+ 8XG.2.h.y.2.y.",
"7.y.7.h.h.h.a.a.h.9.w.i.! Q.9.y.9.a.7.h.2.k.x.h.x.h.a.-XO G b.x.x.7.x.h.x.x.%X/.oX=X# p oXa.x.x.t.h.",
"y.3.h.x.7.x.x.q.c.b.S.C N C.F.v.w.x.9.c.x.k.7.c.a.b.c.-X# > OXx.x.9.n.7.x.y.oXoXS..X+ M.oXx.w.x.x.0.",
"0.v.c.v.c.b.2.2.W ..P 2 v 3.O.2.4.g k r.C.S.w.|.k r.*XS.6 ; *Xl D.9.S.S.S.S.C.OX,.k.+ /.OXD.j.t.D.o.",
"k k k k x z u u 9 w 1 7 - c 7 2 2 ; + 0 Z Y l J & 2 z 4 # # z + Z u C z H T j Y 2 1 @ 2 z z v 4 I w ",
"{ ~ ` ` [ M & - { %.+ | 8 D A F ^ ^ ! } ; 6 ; ] B A ^ A B A ^ N ^ C Q } - # A ^ B B V B S ~ ^ # * B ",
"1X5X0X5XrXN.# ( rXMXl yXg.dXqXqXxXqXqXvX) @ ( tXyX9XuXkX0XuX7XqX0XvX3XcX4 - dXqX5XxXqX5X7X1XbX2 ; 5X",
"<.2.2.a.0.;X@ FX4.4.0X0.oX0.8.2.a.<.s.9.nX@ NX9.r.2.G.<.2.#Xr.3.3.#Xy.B.K./ [.4.2.oX7.3.a.2.yX..C S.",
"h.h.x.a.w.U . FXs.a.x.a.2.x.k.9.x.9.x.x.*X. uXx.9.x.x.7.2.7.2.h.x.k.a.v.i.! Y.s.x.9.a.a.x.3.b...C b.",
"h.x.x.x.C.:.o ZXa.x.x.x.x.x.x.x.0.x.9.s.-X  NX3.3.x.x.h.x.x.n.9.x.a.a.c.i.A C.v.x.x.x.v.x.x.c...C b.",
"h.v.h.c.S.U @ CXd.9.c.x.v.x.0.n.w.f.c.x.:Xo NXx.y.v.x.x.h.0.k.x.0.h.x.v.k.5 A.x.x.x.x.x.v.x.A...C b.",
"x.w.e.C...1 @ o.D.S.#Xt.s.b.C.A.t.2 d.d.N.# q.H.Z.OXc.C.S. XH +.OXS.2.*X;.w $XZ.S.C.OX2.|.g.A.| N OX",
"3 4 * 4 = * @ @ y c < 6 ; 1 w ; O o + + # X @ 4 < v 1 ; ; > & @ 1 ; # 2 . $ 1 < a C C * < # * @ $ 2 ",
"4XdX6XjX6XzXzXtXiX@ + jXtX* hXhXfX].hXgXzXjXwXbX* % M fXhX7XhXdXfX].(.dXpX].hXjX# # # sXdX(.pXpXaXsX",
"7.x.1Xx.w.#Xv.w.$X- jXb.Q.W q.kXb.rX9.j.v.c.x.H.b.# 3XS.0.c.9.9.q.5X<XxXq.v.v.@XH @ iX#Xv.kXv.v.v.q.",
"2.2.q.2.9.v.3.h.;X+ FX2.9.x.9.b.y.N.2.y.h.x.x.d.-X@ MX2.9.a.9.a.2.x.7.b.2.x.a.C.+.^ :X0.2.b.2.x.h.9.",
"h.x.y.y.y.a.x.x.*X+ ZXr.x.x.x.a.y.h.x.x.x.c.c.c.-Xo M.0.c.0.x.x.x.y.y.2.x.x.m.C.+.M Z.v.x.x.x.x.x.7.",
"y.x.9.k.x.x.x.c.v.@ FX2.c.x.x.a.x.x.x.0.c.c.x.x.-Xo ) U N.c.x.a.x.k.x.x.x.U n.oXi.. D.a.x.x.y.h.y.x.",
"h.x.h.h.x.x.x.A.e.@ gX0.c.v.v.v.x.v.v.C.I c.b.S.0X@ k <.Y S.v.b.x.c.v.v.c.7.U _ K.7 $Xb.v.c.x.9.v.0.",
" ._  ._ ...._ 1.k + C 7.t.t.y.1.2.t.t.k.j D ~ V.' # & c.= W L 1.z Z H ....v.L = N e T C y.r.y.t._ e.",
"T ` ` ` ` T T ` v r 6 C f b w a n k k C x & - H - V 8 n @ N M ' 3 7 0 ~ T ` l.; q 8 8 9 o.N N N ( T ",
"j.].W.W.^.^.W.fX~.7Xi n a w o h u i i u i f d b u xXz.@ q 5XpX!.sX'.W.sXM.^.W.'.).).).!.4X< % N (.R.",
"7.3X9.7.7.7.>.kX>.0.v.G.OXnXO HXS.oXOX[.S.oX[.OXA.S. X& FX0.4.>.tX,X>.xX>.7.2.tX3.0.9.v.w.%Xo MX0.6.",
"r.7.r.y.3.a.r.y.x.n.9.9.S.*X. SX3.x.x.c.c.d.c.c.0.m..X@ DXr.9.p.y.2.2.y.y.a.y.7.y.a.a.9.d.:X  SXr.a.",
"h.h.h.y.x.y.h.n.x.x.n.x.[.Y   GXr.c.m.c.c.9.n.v.n.x.=X& DXd.x.3.x.h.h.h.y.7.x.x.y.x.x.x.x.:X  HXx.x.",
"h.x.9.h.x.h.9.x.x.x.x.0.$Xi O SXs.A./.I L.9.0.d.9.x.-X- + F.6.x.x.h.h.h.k.a.7.a.x.x.x.m.c.8Xo x A.h.",
"7.9.9.9.9.9.9.0.0.c.N.t @XXX+ 8XB.;X2 I oXw.F.v.oXH.0.6 %XOXm.0.0.8.0.0.0.c.c.w.0.0.w.C.OXP % G OX0.",
" . . .#. .O.#.o.o.i.u.H 2 - % 3 d i * u #...#.; O.1 1 @ * n.t.t.#. . . .#.z - i.o.t.k.K.i = & ; ..i.",
"| [ &.[ ; X.&.# & ~ $.$.` ` { ] [ $.@ & / $.X.! X.S ` ! ~ - 6 } ( ~ ~ ` ` ( B &.] w - 7 ( B x ! 3 ` ",
"5.6.q.: -.v.w.F 7 ~.x.6._.U.q.v.v.oXF q Q.6.j.5.7X6.~.Q.#XM M ^.j.2X4X5.4X5.5.j.v.@.@ M.q.'.2X0.[ j.",
"x.9.v.*.#X0.w.M.3 8X9.9.b.w.9.c.0.S.2.V @X0.v.9.OX2.w.b.C.#.~ {.9.oXoX>.Q.9.h.9.c.$XO FX3.Q.%X0.v.9.",
"h.h.y.&X2.x.c.x.: XXr.h.x.a.a.c.9.c.7.M @Xa.x.x.2.x.x.x.0.p.r S.7.2.7.h.a.y.x.h.n.=X. GX<.9.a.a.h.2.",
"h.9.h.x.h.x.0.I.: =Xa.0.x.c.x.x.x.c.k.r @Xa.x.x.x.x.x.x.c.k.+ OXA.0.v.x.x.v.x.x.x.;X  SXr.x.x.x.x.x.",
"y.h.y.x.x.x.0.N.* *Xx.x. .c.v.h.v.0.k.2 $X9.x.x.x.n.x.0.c.n.# _ L b.x.x.x.x.x.x.x.=X. BXy.x.x.x.x.a.",
"9.x.9.x.v.v.c.I.; |.q.k.C ..b.9.c.c.h.v #.S.x.0.v.c...S.S.5.% v < v.c.v.x.0.c.x.S.c.@ S.c.c.c.x.x.c.",
"t.t.t.y.2.r.n.} 7 N.9.b.&.= #.,.x.d.{ w - x.i.k.c.7.u m.A.~ 1 cXVXw.v.x.x.w.y.o.S.z # f c.k.v.2.p.b.",
"S ` 4 | v N R + - N C Z o.6 # 2 F D % # & 2 ; a S B @ N D @ @ ; R Y T E T E 1 + T - & 6 b C S 1 1 R ",
"T.!.7 E.@ & -.7X6Xw $ @ B 4XsX`.E.~.'.6XsX].% % aX%X).`.(.dXE 2 9 % # 1 1 > 2 2 1 1 pX).^.iXpX).v # ",
"4.0.x.{.CXCX* F.C.$X+ JX:X0.4.4.>.vXlX3.0.Z.o.-.}.4.0.8X4.A.w.D.pX@ jXOXF.D.S.S.G.c.C.q.w.w.c.{.J.- ",
"h.x.h.a.7.c.gXw.c.OX. AXr.x.x.a.s.7.a.x.x.c.W =.w.x.h.x.3.x.9.F.D.Z ].C.c.v.c.v.v.x.x.x.x.x.m.S.nX# ",
"x.h.h.x.a.a.c.a.0.&X. GXr.x.x.v.9.a.x.x.0.c. .=.b.v.x.x.x.x.x.9.c.E ^ S.v.x.v.x.a.x.x.x.x.x.w.D.c.- ",
"7.x.x.h.h.x.x.v.b.$X+ yXc.x.x.x.x.v.m.x.D.b.O.Q S.a.3.x.x.9.x.C.OXR 7 G.0.x.x.7.a.x.a.9.x.b.c.D.I & ",
"4.9.4.x.d.9.x.c.b.I + U G.w.0.c.v.c.A.e.A.j y.F Z.0.0.v.0.v.b.$Xz 9 T OXc.c.c.x.0.0.9.0.S.G.G :XD.6 ",
"o.i.t.t.t.t.e.u.d 1 # 2 K p.x.p.n.c.k.u k ; w 7 p.e...e.e.i.K n ; & w N.x.r.y.e.o.i.e.i.R g * _ R & ",
"` v N 9 M @.| | x V V 7 2 b a b b v w - 1 ; ; M } ` | { | } x N 5 V M w w F [ { ` ' ' [ ^ k w T F w ",
"*.S A % &.g.*.g.j.z.j.Z H Z Z z u ; # @.K Y R T.^.*.o.*.*.*.*.z.'.z.j.v # =.*.*.T.*.X.*.g.5.g.l.^.j.",
"S.b.S.# NXw.c.V.w.c.C.m.A.b.S.x.e.t.6 #XS.m.c.C.0X8.w.w.v.0.c.w.0Xw.oXI.* mXc.w.5Xw.0.v.0.q.w.w.+Xw.",
"c.c.S.. ZX2.x.n.x.a.a.v.c.c.c.x.%XMXo 7.b.c.x.x.2.y.a.a.x.x.a.c.x.t.w.$X* mX3.2.x.y.2.x.x.k.x.a.0.x.",
"c.S.D.O BXa.c.x.x.x.n.0.x.c.c.S.[.$X- MXc.0.9.v.a.k.h.7.a.x.x.x.m._ I m.; MXc.x.c.c.x.x.x.a.a.x.h.a.",
"S.S.a.# NX9.c.x.x.x.0.v.,.S.G.c.oXc.& o.S.c.c.s.y.x.x.x.x.x.x.b.S.&Xy n ; mXS.G.G.9.b.x.c.x.x.x.k.7.",
"D.W 1 6 OXG.2.b.v.x.v.o.; P.S.|.C.s & T J.c.x.w.x.9.h.9.9.v.S.F.H.s.d m ; V.OXD.y.s G.N.S.x.9.v.3.v.",
"u & 6 & 2 G., I.r.t.r.Q...@ 6 y.2 6 6 k #XK.u n.i.t.i.t.t.y.k., 2 & * 6 7 ' G u 0 1 i - S.t.p.y.a t."
};
