/* XPM */
static char *b3fc5bd023a94c2fb0e140ca1f926a064CqGs9s26vdYH1vv[] = {
/* columns rows colors chars-per-pixel */
"50 50 226 2 ",
"   c None",
".  c #000102",
"X  c #00060A",
"o  c #01090D",
"O  c #0D090A",
"+  c #020C12",
"@  c #050E19",
"#  c #0A0D15",
"$  c #05121C",
"%  c #09121D",
"&  c #071619",
"*  c #15151D",
"=  c #031321",
"-  c #0A1423",
";  c #0A1A24",
":  c #0D1629",
">  c #031C2D",
",  c #0D192B",
"<  c #011924",
"1  c #131B2D",
"2  c #141926",
"3  c #0C1D33",
"4  c #051E38",
"5  c #141C33",
"6  c #171D36",
"7  c #05232F",
"8  c #142125",
"9  c #01253D",
"0  c #072839",
"q  c #15223B",
"w  c #19223E",
"e  c #162434",
"r  c #22273C",
"t  c #31303C",
"y  c #0A2944",
"u  c #1C2543",
"i  c #1E2B4B",
"p  c #192744",
"a  c #07334E",
"s  c #1B3747",
"d  c #042D57",
"f  c #192A51",
"g  c #0D3556",
"h  c #163759",
"j  c #222A4D",
"k  c #262C4B",
"l  c #263849",
"z  c #242E54",
"x  c #292D53",
"c  c #272F59",
"v  c #26315A",
"b  c #29335E",
"n  c #28375A",
"m  c #31395A",
"M  c #363D4E",
"N  c #073A68",
"B  c #12366D",
"V  c #2A3561",
"C  c #2C3965",
"Z  c #2E3A6B",
"A  c #243664",
"S  c #353563",
"D  c #333A6D",
"F  c #3A3D6B",
"G  c #2A3C73",
"H  c #333D72",
"J  c #383C78",
"K  c #194957",
"L  c #2C435A",
"P  c #0A4B73",
"I  c #175878",
"U  c #10446A",
"Y  c #384567",
"T  c #294977",
"R  c #35427B",
"E  c #3A447C",
"W  c #245373",
"Q  c #385876",
"!  c #2A406C",
"~  c #3D6D7C",
"^  c #47415F",
"/  c #645B44",
"(  c #46466E",
")  c #43437D",
"_  c #465C60",
"`  c #5A6E70",
"'  c #2C3D84",
"]  c #0F5387",
"[  c #075893",
"{  c #17568B",
"}  c #394889",
"|  c #285E98",
" . c #3D549A",
".. c #2F4F8B",
"X. c #236488",
"o. c #2252B0",
"O. c #0767B7",
"+. c #0E68A9",
"@. c #2B6DAD",
"#. c #4A478C",
"$. c #43498D",
"%. c #494A8C",
"&. c #434786",
"*. c #484B98",
"=. c #524C93",
"-. c #554E99",
";. c #495599",
":. c #54539D",
">. c #575199",
",. c #47578A",
"<. c #6A759A",
"1. c #4559A6",
"2. c #5657A4",
"3. c #4557B4",
"4. c #4E57AE",
"5. c #655DAD",
"6. c #675BAB",
"7. c #665EB1",
"8. c #5469B7",
"9. c #4E63AF",
"0. c #6B63B4",
"q. c #6E65BA",
"w. c #6965B6",
"e. c #7566BA",
"r. c #746ABC",
"t. c #7C6ABD",
"y. c #786ABA",
"u. c #4E758A",
"i. c #3278C3",
"p. c #5667C8",
"a. c #5A75CB",
"s. c #5B77D5",
"d. c #746BC2",
"f. c #7E6CC1",
"g. c #7567C4",
"h. c #6771CB",
"j. c #7F73C4",
"k. c #6578DB",
"l. c #6164C9",
"z. c #597EED",
"x. c #7A6BEB",
"c. c #826EC3",
"v. c #8A6FC6",
"b. c #8571C5",
"n. c #8574C9",
"m. c #8C74CA",
"M. c #8B75CA",
"N. c #9176CD",
"B. c #9379CE",
"V. c #987BCF",
"C. c #957CD1",
"Z. c #9A7DD3",
"A. c #8A7AD0",
"S. c #A07FD5",
"D. c #549680",
"F. c #5F85A6",
"G. c #7E83A3",
"H. c #2382D2",
"J. c #1793E5",
"K. c #3692E4",
"L. c #1EA2FF",
"P. c #3BAAFF",
"I. c #5286D4",
"U. c #6880D6",
"Y. c #7180D9",
"T. c #638AD2",
"R. c #5486F4",
"E. c #6989FD",
"W. c #768AFB",
"Q. c #6A99FF",
"!. c #7696FE",
"~. c #7BA4FF",
"^. c #50B3F4",
"/. c #47C4FF",
"(. c #63E3FF",
"). c #9582D2",
"_. c #9C82D5",
"`. c #9985D8",
"'. c #A182D6",
"]. c #A485D9",
"[. c #A48ADB",
"{. c #AB8BDC",
"}. c #A886DC",
"|. c #B18CDE",
" X c #B193DF",
".X c #859AFC",
"XX c #9097F2",
"oX c #B38DE1",
"OX c #B593E2",
"+X c #BA94E5",
"@X c #B899E4",
"#X c #A980EB",
"$X c #85A4FE",
"%X c #87AAFF",
"&X c #98A7FA",
"*X c #88B5FF",
"=X c #84B5FF",
"-X c #95BEFF",
";X c #B1B1FD",
":X c #C19AE7",
">X c #C59DE9",
",X c #C599E7",
"<X c #C5A2EC",
"1X c #CBA3ED",
"2X c #CDA8EE",
"3X c #D3AAEE",
"4X c #CEACF2",
"5X c #D5ACF1",
"6X c #D6B4F4",
"7X c #DAB8F6",
"8X c #E4BDF7",
"9X c #E0B2F4",
"0X c #94C4FF",
"qX c #9ACAFF",
"wX c #A3C6FF",
"eX c #B8C6FE",
"rX c #A5D8FD",
"tX c #B6DAFB",
"yX c #ABE5FB",
"uX c #B8E8FB",
"iX c #DCC2F9",
"pX c #C8C6FD",
"aX c #ECCDFB",
"sX c #EAC0F8",
"dX c #EAD4FD",
"fX c #D0E8FC",
/* pixels */
"                                    W N y 0 y                                                       ",
"                                    O O % 0 d N N O.J.F.                                            ",
"                                                  X.X.+.J.^.                                        ",
"                                                        4 P @.K.          (./.                      ",
"                                pXtXuXyXrXyXuXtXwX          a g | I.      L.O.                      ",
"                          tXqX*X!.s.h.9.( k k V *.p.;XpX;X      7 0 l         W i.                  ",
"                    %XqX~.!.!           L 6 @ @ X . . . X < *.#X    9 d       @.[                   ",
"                Y.%X!.m          .R 3 X . + u -.y.>.j X . . . . - m   + a @.  l 8 L u.              ",
"              Q.Q.m         V G $ # c y.6X1X>X+X<X<X5X7XaXdXw.& . . o % $ @       P ]               ",
"          0X!.$.        V T , $ :.Z.oX}.}.B.m.m.m.N.V.'.{.2X5X8X}.} . X _ Q h     { [               ",
"        $XT.2.        1.A - &.t.{.OX_.m.c.f.f.c.c.c.c.c.b.M.Z.@X7X:XZ ; . + =     e 1 *             ",
"      qX!.E.      k.1.f w 2 y.>XS.N.c.c.c.c.c.b.b.b.b.b.b.b.v.m.}.>X8Xq.. X o -       I *.          ",
"        @.      e &.j X #.2X[.'.c.c.f.c.Z.+X4X7XiXiXiX7X1X{.m.b.n.Z.3X@Xr.u . @ 0     ] A           ",
"              3.R e k j 0.1XN.c.c.c.'.oX1X-.: - @ % % . ) 4X<X+XV.v._.'.7X;.+ $ <     N o.          ",
"          XX*.p 1 $ H 3X'.V.t.f.N.Z.'.=.- % + % % % $ + X . J '.{.}.m._.5X_.g.q .     h @.          ",
"          A.*.    $ V 2XV.f.c.B.oXm.6 - + 5 6 u j i j j 5 # . . C.7XoXZ.>Xm.n.; . + ; e K           ",
"        ^ C r e z 7.y.}.c.c.N.N.S 6 @ 1 u i j j z i j z c S o . X 5 [.oX{.M.).=.v > <     ;         ",
"        k.    i c +X|.V.c.B.S.S.6 @ 5 u i z z z c c v v c C c w . . +X>X@X'.@X).d.; +     e         ",
"      %XW.    : w OX].c.t.S.#.b 5 , j z v v b V b V V V V C H D . . e ) 1X[.>XA.w.+ o     W     P.P.",
"    ` m e 2 # w z ].Z.t.v.:Xj o 5 u z c v b V V V V V V V V H H + . . @ 8X{.>Xt.2.$ @     7     a g ",
"    p.8.  H w D %.Z.N.v.m.>Xx + u j c v b V V V V V V V V C H J 5 $ . - aX X<Xr.:.i q   + o     y g ",
"    R.*X  a.q 2.y.B.m.N.c.Z.x @ i z v b V V V b b V V V C Z D H v q . % :X].5Xr.-.} J & + X     p a ",
"    h.$X  p., y.Z.m.c.'.6.=.j - j z c b V V b V V b b V V Z Z Z D j . + %.0.8Xt.5.w.2.s s ;     U q ",
"    ) F   } , f.'.v.c.|.-.x w 1 j c v V V V V b b V b V V Z Z H R v . X , >.aXj.2.e.1.& 7 *     X.g ",
"l 2       A 3 b.{.v.c.+X=.6 u 5 i c v V V V b V A b V b V Z Z Z } x . o + %.aXc.w.f.*.. +       I h ",
"*.4.      w ; j.[.n.f.oX=.w u 5 j c V V V b V V V b b b A C H Z J c . o + %.aXj.5.f.2.X $       & e ",
"} 8.    % n i n._.v.c.|.=.x w 5 j c v A V V V b V b b V V Z Z ! R c . X , >.aXj.2.d.;.X >   s h     ",
"R 9.    : Y Y n.B.N.b.].6.=.k - i z v V V V b V b V V b V Z Z H D j . + %.0.8Xt.5.e.$.o a   | I     ",
"} ;.    1 2 1 7.y.Z.M.N.c._.x @ j z v b V V V b V V V V V Z Z H c w . $ :X_.5Xr.>.$.C o U   i.P     ",
" .;.    i 2   &.*.Z.B.c.v.>Xx o u j c v b V V V V V V V V Z D R 5 @ . - aX+X1Xq.:.i 3 $ y   h X.    ",
",.}     A     f z }.Z.f.v.+Xj X 5 u z c v V V V V V V C C V H H + . . % 8X{.>Xy.2.& @ o 2 ; h Q     ",
"yXyX    8.    p u OX{.c.c.'.#.V 5 1 p z v v V V V V V V V V J D X . e ) 1X`.:XA.w.o X     { H.      ",
"        S     f c +X|.V.c.B.]._.5 # 5 u z z z z c z z c c C c q . . +X>X+X_.:XB.d.= +     P         ",
"        *     A C 7.t.{.b.c.N.N.S 5 @ 1 u u j j z i j z x D X . X 1 [.oX{.n.C.*.V < + ; 5 L         ",
"          ) l 6 5 - V 3XZ.c.c.V.+Xm.6 - + 5 6 u u j i j 5 # . . V.6XoXC.:Xn.f.; .     y I           ",
"          $X8.    = J 3X'.Z.t.t.m.Z.S.=.- % @ % % % % o X . J '.{.].N._.6X`.q.5 X X & s D.          ",
"          ~.E.    Z c v 0.1Xm.c.f.v.S.oX2X>.- - @ % % X ) 4X<X@XZ.m._.[.9X;.o ; & 3 9               ",
"          R.W.    } u X #.3X[._.c.t.f.c.Z.+X4X7X7X7XiX7X1X{.M.v.m._.5X@Xd.w . 7 L &       U.        ",
"          E.k.      5 p w : e.,XZ.m.c.c.f.f.c.c.n.n.b.n.b.b.M.B.{.>XsXr.. X o > 9       &X$XeX      ",
"              w l     H p $ E b. X+X'.m.c.f.c.c.c.c.c.c.c.m.Z.@X6X+XF : . @ >         Q T.=X        ",
"              !.$X    Y.,.M - @ 2.[.@XOX|._.C.N.m.N.N.Z.'.>X>X2X_.J . . @ @         ;.!.0X          ",
"              !.W.      } G 6 # + $ n t.7X3X>X:X>X>X4X5XiXdX0.% . . o +         b Q.Q.              ",
"              <.k 2 (   &X4.2   r i - X . @ u =.y.=.j X . . . . X X         Y W.%XY.                ",
"                  ~.*X      R.p.    t } } f - + X . . . . .           #.!.=X0X=X                    ",
"                  $Xk.        L  .3.      R T.a.8.:.2.6.y.).XXXXW.~.*XqXrX                          ",
"                      !.yX      wX$Xs.W.          G.tXuXrXrXtXyXtX;X                                ",
"                      fXfX          wX$XE.z.                                                        ",
"                                        wX-X~.XX/                                                   ",
"                                            &X0X0X~.W.h.S r # O                                     ",
"                                                      ,. .p.3.1.                                    "
};
